
        <svg xmlns="http://www.w3.org/2000/svg" xmlns:xlink="http://www.w3.org/1999/xlink" version="1.1" width="3162.301547173627" height="1061.7134098716772" viewBox="0 0 3162.301547173627 1061.7134098716772">
			
			<g transform="scale(8.115077358681363) translate(10, 10)">
				<defs id="SvgjsDefs1627"/><g id="SvgjsG1628" featureKey="symbolFeature-0" transform="matrix(0.22225788235664368,0,0,0.22225788235664368,-12.739328015390203,-1.3682884582760266)" fill="#fff"><g xmlns="http://www.w3.org/2000/svg"><g><g><path d="M410.018,397.86H101.982c-1.146,0-2.242-0.477-3.024-1.315l-40.531-43.493c-1.122-1.205-1.422-2.959-0.766-4.468     c0.656-1.509,2.145-2.485,3.791-2.485h389.098c1.646,0,3.134,0.977,3.791,2.484c0.656,1.51,0.355,3.264-0.767,4.469     l-40.531,43.493C412.261,397.384,411.165,397.86,410.018,397.86z M103.781,389.592H408.22l32.826-35.225H70.954L103.781,389.592z     "/></g><g><path d="M416.092,354.367H95.78c-2.283,0-4.134-1.852-4.134-4.135V190.766c0-6.28,5.125-11.39,11.423-11.39h43.687     c2.283,0,4.133,1.851,4.133,4.134v39.36h39.565c1.373,0,2.656,0.681,3.425,1.818c0.769,1.138,0.923,2.583,0.411,3.856     l-9.85,24.517l47.53-29.568c0.655-0.408,1.412-0.624,2.184-0.624h126.955v-39.36c0-2.283,1.852-4.134,4.134-4.134h43.692     c6.3,0,11.426,5.109,11.426,11.39v159.332C420.361,352.451,418.445,354.367,416.092,354.367z M99.914,346.099h312.179V190.766     c0-1.692-1.446-3.122-3.157-3.122h-39.558v39.359c0,2.283-1.852,4.134-4.135,4.134H235.335l-57.259,35.621     c-1.518,0.943-3.471,0.805-4.841-0.344c-1.37-1.149-1.845-3.049-1.179-4.708l12.282-30.569h-37.583     c-2.283,0-4.134-1.851-4.134-4.134v-39.359h-39.553c-1.74,0-3.155,1.4-3.155,3.122V346.099z"/></g><g><path d="M387.09,354.367H124.909c-2.283,0-4.134-1.852-4.134-4.135V212.503c0-2.283,1.851-4.133,4.134-4.133h21.847     c2.283,0,4.133,1.851,4.133,4.133v10.366h39.565c1.373,0,2.656,0.681,3.425,1.818c0.769,1.138,0.923,2.583,0.411,3.856     l-9.85,24.517l47.53-29.568c0.655-0.408,1.412-0.624,2.184-0.624h126.955v-10.366c0-2.283,1.852-4.133,4.134-4.133h21.847     c2.283,0,4.134,1.851,4.134,4.133v137.729C391.224,352.516,389.373,354.367,387.09,354.367z M129.043,346.099h253.912V216.637     h-13.577v10.366c0,2.283-1.852,4.134-4.135,4.134H235.336l-57.259,35.621c-1.518,0.943-3.471,0.805-4.841-0.344     c-1.37-1.149-1.845-3.049-1.179-4.708l12.282-30.569h-37.583c-2.283,0-4.134-1.851-4.134-4.134v-10.366h-13.58V346.099z"/></g><g><path d="M175.894,267.381c-0.95,0-1.895-0.326-2.658-0.967c-1.37-1.149-1.845-3.049-1.179-4.708l12.282-30.569h-37.583     c-2.283,0-4.134-1.851-4.134-4.134v-108.73c0-2.283,1.851-4.134,4.134-4.134h218.487c2.283,0,4.135,1.851,4.135,4.134v108.73     c0,2.283-1.852,4.134-4.135,4.134H235.336l-57.259,35.621C177.405,267.175,176.648,267.381,175.894,267.381z M150.89,222.87     h39.565c1.373,0,2.656,0.681,3.425,1.818c0.769,1.138,0.923,2.583,0.411,3.856l-9.85,24.517l47.53-29.568     c0.655-0.408,1.412-0.624,2.184-0.624h126.955V122.407H150.89V222.87z"/></g><g><path d="M355.686,256.331h-94.681c-2.283,0-4.134-1.851-4.134-4.134c0-2.283,1.851-4.134,4.134-4.134h94.681     c2.282,0,4.134,1.851,4.134,4.134C359.819,254.479,357.968,256.331,355.686,256.331z"/></g><g><path d="M355.686,281.881h-94.681c-2.283,0-4.134-1.852-4.134-4.134c0-2.283,1.851-4.135,4.134-4.135h94.681     c2.282,0,4.134,1.852,4.134,4.135C359.819,280.029,357.968,281.881,355.686,281.881z"/></g><g><path d="M355.686,307.431h-94.681c-2.283,0-4.134-1.852-4.134-4.135c0-2.282,1.851-4.134,4.134-4.134h94.681     c2.282,0,4.134,1.852,4.134,4.134C359.819,305.579,357.968,307.431,355.686,307.431z"/></g><g><path d="M357.959,332.618H234.155c-2.283,0-4.134-1.852-4.134-4.135v-72.487c0-2.283,1.851-4.134,4.134-4.134     c2.283,0,4.134,1.851,4.134,4.134v68.353h119.67c2.283,0,4.135,1.851,4.135,4.134S360.242,332.618,357.959,332.618z"/></g><rect x="205" y="161.767" style="" width="14.545" height="14.476" fill-rule="evenodd" clip-rule="evenodd"/><rect x="234.155" y="161.767" style="" width="14.544" height="14.476" fill-rule="evenodd" clip-rule="evenodd"/><rect x="263.309" y="161.767" style="" width="14.545" height="14.476" fill-rule="evenodd" clip-rule="evenodd"/><rect x="292.457" y="161.767" style="" width="14.543" height="14.476" fill-rule="evenodd" clip-rule="evenodd"/><rect x="321.61" y="161.767" style="" width="14.543" height="14.476" fill-rule="evenodd" clip-rule="evenodd"/><rect x="175.893" y="161.767" style="" width="14.544" height="14.476" fill-rule="evenodd" clip-rule="evenodd"/></g></g></g><g id="SvgjsG1629" featureKey="nameFeature-0" transform="matrix(1.113731026649475,0,0,1.113731026649475,105.32704469970466,-10.335418062171343)" fill="#fff"><path d="M29.96 14 l-2.8 3.28 q-1.64 -1.68 -3.92 -2.64 t-4.8 -0.96 q-3.28 0 -5.98 1.48 t-4.22 4.04 q-1.56 2.68 -1.56 5.96 q0 3.12 1.68 5.76 q1.6 2.48 4.3 3.94 t5.82 1.46 q2.88 0 5.36 -1.24 t4.12 -3.44 l2.68 3.64 q-2.28 2.56 -5.46 3.98 t-6.74 1.42 q-4.44 0 -8.16 -2.16 q-3.64 -2.08 -5.72 -5.72 q-2.16 -3.72 -2.16 -8.16 q0 -4.28 2.28 -7.88 q2.16 -3.44 5.86 -5.46 t7.94 -2.02 q3.32 0 6.32 1.28 q2.92 1.2 5.16 3.44 z M46.36 13.32 l-1.64 -3.68 l4.8 0 l14.36 30.36 l-4.88 0 l-1.96 -4.36 l-9.08 0 q-2.56 0 -4.6 0.48 q-1.8 0.44 -3 1.16 q-1.08 0.64 -1.44 1.32 l-0.76 1.4 l-4.72 0 z M49.56 31.240000000000002 l5.52 0 l-6.52 -12.6 l-6.6 14.28 q0.88 -0.76 2.68 -1.2 q2.04 -0.48 4.92 -0.48 z M73.84 14.52 l0 9.92 q1.24 -0.72 2.76 -0.96 q1.12 -0.2 2.88 -0.2 l5.68 0 q2.36 0 3.68 -1.08 q1.4 -1.16 1.4 -3.48 q0 -2.2 -1.48 -3.28 q-1.28 -0.92 -3.6 -0.92 l-11.32 0 z M86.6 35.28 l-3.64 -7.64 l-3.48 0 q-1.64 0 -2.88 0.2 q-1.52 0.28 -2.76 0.96 l0 11.2 l-4.36 0 l0 -29.84 l15.68 0 q2.76 0 4.88 1.04 t3.28 2.96 q1.24 2.04 1.24 4.8 q0 3.36 -1.8 5.52 t-5.08 3 l2.32 4.76 q1 1.48 1.56 2.08 q0.68 0.76 1.3 1.02 t1.62 0.26 l0.44 0 l0.96 -0.04 l0 4.44 q-2.32 0 -3.44 -0.16 q-1.88 -0.32 -3.2 -1.24 q-1.56 -1.12 -2.64 -3.32 z M128.88 24.880000000000003 q0 -3.2 -1.64 -5.8 q-1.56 -2.52 -4.26 -3.96 t-5.86 -1.44 q-3.28 0 -5.98 1.48 t-4.22 4.04 q-1.56 2.68 -1.56 5.96 q0 3.12 1.68 5.76 q1.6 2.48 4.3 3.94 t5.84 1.46 t5.84 -1.52 t4.26 -4.08 q1.6 -2.68 1.6 -5.84 z M133.20000000000002 25.119999999999997 q0 4.32 -2.24 7.96 q-2.16 3.48 -5.86 5.54 t-7.98 2.06 q-4.44 0 -8.16 -2.16 q-3.64 -2.08 -5.72 -5.72 q-2.16 -3.72 -2.16 -8.16 q0 -4.28 2.28 -7.88 q2.16 -3.44 5.86 -5.46 t7.94 -2.02 q4.36 0 8.08 2.12 q3.64 2.08 5.76 5.64 q2.2 3.72 2.2 8.08 z M160.92000000000002 40 l-20.92 0 l0 -29.84 l4.36 0 l0 25.48 l16.56 0 l0 4.36 z M170.40000000000003 40 l-4.28 0 l0 -29.84 l4.28 0 l0 29.84 z M180.08000000000004 14.36 l-3.48 -4.2 l5.64 0 l19.16 22.8 l0 -22.8 l4.4 0 l0 29.84 l-4.32 0 l-17.12 -20.52 l0 20.52 l-4.28 0 l0 -25.64 z M218.96000000000004 28.04 l0 7.6 l18.4 0 l0 4.36 l-22.76 0 l0 -29.84 l21 0 l0 4.4 l-16.64 0 l0 9.04 q1.24 -0.72 2.76 -0.96 q1.12 -0.2 2.88 -0.2 l6.52 0 l0 4.44 l-6.52 0 q-1.64 0 -2.88 0.2 q-1.52 0.28 -2.76 0.96 z"/></g><g id="SvgjsG1630" featureKey="nameFeature-1" transform="matrix(2.097485065460205,0,0,2.097485065460205,103.80502884097707,25.53534302359481)" fill="#fff"><path d="M27.6 30.92 q0 2.92 -1.76 5.2 q-1.72 2.16 -4.74 3.36 t-6.82 1.2 q-3.48 0 -6.76 -1.62 t-5.52 -4.5 l3.12 -2.92 q3.88 4.68 9.16 4.68 q2.32 0 4.24 -0.56 q2.12 -0.64 3.28 -1.8 q1.32 -1.28 1.32 -3.04 q0 -2.12 -1.32 -3.2 q-1.12 -0.92 -3.32 -1.2 q-1.28 -0.16 -4.2 -0.16 q-5.36 0 -8.18 -1.96 t-2.82 -5.76 q0 -2.4 1.42 -4.56 t3.9 -3.44 q2.56 -1.36 5.68 -1.36 q3.52 0 6.36 1.08 q3.04 1.16 5.64 3.64 l-2.72 3.2 q-2.44 -1.96 -4.44 -2.74 t-4.84 -0.78 q-1.64 0 -3.06 0.68 t-2.26 1.82 t-0.84 2.42 q0 3.44 6.36 3.44 q5.08 0 8.04 1.04 q2.8 1 4 3.04 q1.08 1.8 1.08 4.8 z M43.32 13.32 l-1.64 -3.68 l4.8 0 l14.36 30.36 l-4.88 0 l-1.96 -4.36 l-9.08 0 q-2.56 0 -4.6 0.48 q-1.8 0.44 -3 1.16 q-1.08 0.64 -1.44 1.32 l-0.76 1.4 l-4.72 0 z M46.52 31.240000000000002 l5.52 0 l-6.52 -12.6 l-6.6 14.28 q0.88 -0.76 2.68 -1.2 q2.04 -0.48 4.92 -0.48 z M72.4 14.559999999999999 l0 21.08 l6.76 0 q2.8 0 5.04 -1.44 q2.12 -1.4 3.32 -3.76 t1.2 -5.16 q0 -2.92 -1.14 -5.36 t-3.26 -3.88 q-2.28 -1.48 -5.24 -1.48 l-6.68 0 z M65.76 14.559999999999999 l-1.92 -4.4 l15.2 0 q3.96 0 7.24 2.04 q3.16 1.96 5 5.36 t1.84 7.4 q0 3 -1.18 5.94 t-3.26 5.14 q-2 2.16 -4.28 3.08 q-2.2 0.88 -5.24 0.88 l-11.04 0 l0 -25.44 l-2.36 0 z M109.24000000000001 13.32 l-1.64 -3.68 l4.8 0 l14.36 30.36 l-4.88 0 l-1.96 -4.36 l-9.08 0 q-2.56 0 -4.6 0.48 q-1.8 0.44 -3 1.16 q-1.08 0.64 -1.44 1.32 l-0.76 1.4 l-4.72 0 z M112.44000000000001 31.240000000000002 l5.52 0 l-6.52 -12.6 l-6.6 14.28 q0.88 -0.76 2.68 -1.2 q2.04 -0.48 4.92 -0.48 z"/></g>
			</g>
		</svg>
	